<svg id="Layer_1" xmlns="http://www.w3.org/2000/svg" viewBox="0 0 480 480"><style>.st0{fill:#8c06c9}.st1{fill:#fff}</style><path class="st0" d="M211.7 193.4c0-8.6-1.7-15.2-5.1-19.9-3.4-4.7-8.3-7-14.7-7-6.1 0-10.8 2.3-14.3 6.9-3.5 4.6-5.3 11.1-5.4 19.3v5.4c0 8.4 1.7 15 5.2 19.8 3.5 4.8 8.4 7.2 14.6 7.2 6.2 0 11-2.3 14.4-6.8 3.4-4.5 5.2-11 5.3-19.5v-5.4z"/><path class="st0" d="M409.5 194.2C409.5 93 327.5 11 226.3 11 125.1 11 43.1 93 43.1 194.2c0 101.2 82 183.2 183.2 183.2 101.2 0 183.2-82 183.2-183.2zm-170.4 38h-9.9l27.9-73.1h8.4l27.9 73.1h-9.9l-7-19.1h-30.6l-6.8 19.1zm64.4 71.6c-14 10.2-29.7 16.3-45.7 18.5l-2.9-50.4c13.1-5.1 24.5-13.5 33.2-24.2l47.1 18.4c-7 14.5-17.7 27.5-31.7 37.7zM325.2 115c11.6 11.2 20.7 25.4 26.1 41.8 5.3 16.4 6.3 33.3 3.5 49.2l-49-12.9c-.8-14.3-5.4-27.5-12.7-38.8l32.1-39.3zm-223.9 41.9c5.3-16.4 14.5-30.6 26.1-41.8l32.2 39.3c-7.4 11.3-11.9 24.6-12.7 38.8l-49 12.9c-2.9-16-1.9-32.8 3.4-49.2zm93.5 165.4c-16-2.3-31.7-8.4-45.7-18.5-14-10.2-24.6-23.2-31.7-37.7l47.1-18.4c8.7 10.7 20.1 19.2 33.2 24.2l-2.9 50.4zm20.2-77.7l-15.4-12.2c-2.4.6-5 .9-7.6.9-5.8 0-10.9-1.4-15.3-4.2-4.4-2.8-7.9-6.9-10.4-12.1-2.5-5.2-3.7-11.3-3.8-18.2v-5.3c0-7 1.2-13.2 3.7-18.6 2.4-5.4 5.9-9.5 10.4-12.4 4.5-2.9 9.6-4.3 15.3-4.3 5.9 0 11.1 1.4 15.5 4.3 4.5 2.8 7.9 6.9 10.3 12.3 2.4 5.3 3.6 11.6 3.6 18.7v4.7c0 7.1-1.1 13.1-3.4 18.2-2.2 5.1-5.4 9.1-9.4 12l13 10.2-6.5 6zm-9.1-123.8L178.4 78c14.3-7.6 30.6-11.9 47.9-11.9 17.3 0 33.6 4.3 47.8 11.9l-27.5 42.8c-6.5-1.7-13.3-2.6-20.4-2.6-7 0-13.8.9-20.3 2.6z"/><path class="st0" d="M248.9 205.2h24.8l-12.5-34.1zM353.4 370.1c36.7-13.6 48.5-43.5 92.8-38.3v-34.7c-69.1 6.4-87.8 72.8-159.2 79 22.3 2.3 45.6 2.2 66.4-6z"/><path class="st1" d="M218 216.3c2.2-5.1 3.4-11.2 3.4-18.2v-4.7c0-7.1-1.2-13.4-3.6-18.7-2.4-5.3-5.8-9.4-10.3-12.3-4.5-2.8-9.6-4.3-15.5-4.3-5.8 0-10.9 1.4-15.3 4.3-4.5 2.9-7.9 7-10.4 12.4-2.4 5.4-3.7 11.6-3.7 18.6v5.3c.1 6.9 1.3 13 3.8 18.2 2.5 5.2 5.9 9.3 10.4 12.1 4.4 2.8 9.5 4.2 15.3 4.2 2.7 0 5.2-.3 7.6-.9l15.4 12.2 6.6-6.1-13-10.2c3.9-2.8 7.1-6.8 9.3-11.9zm-26 8.8c-6.2 0-11.1-2.4-14.6-7.2-3.5-4.8-5.2-11.4-5.2-19.8v-5.4c.1-8.2 1.9-14.7 5.4-19.3 3.5-4.6 8.3-6.9 14.3-6.9 6.4 0 11.2 2.3 14.7 7 3.4 4.7 5.1 11.3 5.1 19.9v5.4c-.1 8.5-1.9 15-5.3 19.5s-8.2 6.8-14.4 6.8zM283.5 232.2h9.9l-27.9-73.1H257l-27.9 73.1h9.9l6.9-19.1h30.6l7 19.1zm-34.6-27l12.4-34.2 12.4 34.2h-24.8z"/><path class="st0" d="M54.2 403.2c3.3-4.3 7.8-6.4 13.6-6.4 4.7 0 8.4 1.2 11 3.7 2.6 2.5 4.3 6.4 5.1 11.9H93c-.7-7.2-3.3-12.8-7.7-16.9-4.4-4.1-10.3-6.1-17.6-6.1-5.5 0-10.3 1.3-14.5 3.9-4.2 2.6-7.4 6.3-9.7 11.2-2.3 4.8-3.4 10.5-3.4 16.8v6.6c0 9.8 2.4 17.5 7.3 23.4 4.9 5.8 11.4 8.7 19.5 8.7 7.5 0 13.5-2 18-5.9 4.5-3.9 7.2-9.6 8-16.8H84c-.9 5.7-2.7 9.6-5.4 11.9-2.7 2.3-6.6 3.4-11.6 3.4-5.6 0-10-2.2-13.1-6.6-3.1-4.4-4.7-10.3-4.7-17.8v-6.7c.1-7.9 1.7-14 5-18.3zM106.1 390.4h9.1v68.7h-9.1zM175.5 443.5l-34.7-53.1h-9.1v68.7h9.1v-53l34.6 53h9.1v-68.7h-9zM209.7 427.3h29.7v-7.4h-29.7v-22.1h34.1v-7.4h-43.2v68.7h43.6v-7.5h-34.5zM289.7 446.4l-22.5-56h-11.7v68.7h9.1v-26.8l-.9-28.7 22.5 55.5h6.9l22.6-55.7-.9 28.9v26.8h9.1v-68.7h-11.8zM360.3 390.4l-26.2 68.7h9.3l6.5-18h28.8l6.6 18h9.3l-26.3-68.7h-8zm-7.7 43.3l11.7-32.1 11.7 32.1h-23.4zM447.1 432.5c-1.6-2.6-3.9-4.8-7.2-6.8-3.2-1.9-7.7-3.7-13.4-5.3s-9.8-3.4-12.1-5.3c-2.4-1.9-3.6-4.3-3.6-7.1 0-3.5 1.3-6.2 3.8-8.2 2.5-2 6-3 10.5-3 4.8 0 8.5 1.2 11.2 3.6 2.6 2.4 4 5.7 4 9.8h9.1c0-3.8-1-7.3-3-10.5s-4.9-5.7-8.6-7.5c-3.7-1.8-7.9-2.7-12.6-2.7-6.9 0-12.5 1.8-16.9 5.3-4.3 3.5-6.5 8-6.5 13.4 0 4.8 1.8 8.8 5.3 12.1 3.5 3.3 9.2 6 17 8.2 6.2 1.8 10.5 3.6 12.8 5.4 2.4 1.8 3.5 4.4 3.5 7.8 0 3.4-1.3 6-3.8 8s-6.2 2.9-11 2.9c-5.1 0-9.2-1.2-12.3-3.6-3.1-2.4-4.6-5.7-4.6-9.8h-9.1c0 4 1.1 7.6 3.3 10.7 2.2 3.1 5.4 5.6 9.5 7.4 4.1 1.8 8.5 2.7 13.2 2.7 7.3 0 13.1-1.7 17.4-5 4.3-3.4 6.5-7.8 6.5-13.4 0-3.5-.8-6.5-2.4-9.1z"/></svg>